<?xml version="1.0" encoding="UTF-8" standalone="no"?>
<svg
  version="1.1"
  role="img"
  width="91.825066"
  height="90.454666"
  viewBox="0 0 91.825066 90.454666"
>
  <g
    id="g10"
    transform="matrix(1.3333333,0,0,-1.3333333,-170.85852,650.38797)"
  >
    <g id="g12" transform="scale(0.1)">
      <g id="g772">
        <path
          id="path72"
          d="m 1841.0329,4803.3799 c -58.965,46.59 -133.777,74.53 -215.246,74.53 -190.176,0 -344.348,-151.87 -344.348,-339.21 0,-15.09 1.11,-29.93 3.047,-44.51 21.61,-130.87 136.418,-230.79 274.981,-230.79 31.812,0 62.336,5.36 90.812,15.05 -8.07,-0.72 -16.23,-1.14 -24.492,-1.14 -18.332,0 -36.223,1.84 -53.496,5.34 -120.855,24.16 -211.848,129.68 -211.848,256.2 0,18.39 1.946,36.33 5.602,53.65 25.797,146.08 154.652,257.16 309.891,257.16 60.578,0 117.101,-16.97 165.097,-46.28 v 0"
          fill="#f6bd0c"
        />
        <path
          id="path74"
          d="m 1412.7709,4272.2999 c 58.622,-45.54 132.563,-72.8 213.016,-72.8 190.172,0 344.34,151.87 344.34,339.2 0,3.02 -0.152,6 -0.234,9 -4.817,147.95 -127.637,266.45 -278.559,266.45 -31.813,0 -62.336,-5.36 -90.813,-15.05 8.075,0.73 16.231,1.15 24.5,1.15 18.325,0 36.215,-1.84 53.497,-5.34 120.851,-24.16 211.843,-129.67 211.843,-256.21 0,-18.39 -1.949,-36.33 -5.605,-53.65 -25.797,-146.07 -154.652,-257.15 -309.887,-257.15 -59.308,0 -114.758,16.22 -162.098,44.4 v 0"
          fill="#f47216"
        />
      </g>
    </g>
  </g>
</svg>
